<?xml version="1.0" encoding="UTF-8"?>
<svg xmlns="http://www.w3.org/2000/svg" xmlns:xlink="http://www.w3.org/1999/xlink" width="209.25pt" height="72.36pt" viewBox="0 0 209.25 72.36" version="1.1">
<defs>
<clipPath id="clip1">
  <path d="M 171 0 L 209.25 0 L 209.25 38 L 171 38 Z M 171 0 "/>
</clipPath>
<clipPath id="clip2">
  <path d="M 160 63 L 167 63 L 167 72.359375 L 160 72.359375 Z M 160 63 "/>
</clipPath>
</defs>
<g id="surface1">
<path style=" stroke:none;fill-rule:nonzero;fill:rgb(12.199402%,31.399536%,49.798584%);fill-opacity:1;" d="M 13.609375 42.101563 C 16.964844 42.652344 20.878906 41.910156 22.59375 41.183594 C 23.175781 42.222656 24.046875 43.984375 21.90625 45.164063 C 20.433594 45.976563 18.164063 46.417969 14.085938 46.417969 C 5.796875 46.417969 0.046875 42.5 0 32.976563 C -0.046875 23.242188 5.796875 19.765625 14.085938 19.765625 C 17.332031 19.765625 19.539063 20.082031 21.390625 20.785156 C 23.53125 21.597656 23.371094 23.691406 22.59375 25.003906 C 20.878906 24.265625 16.964844 23.535156 13.609375 24.085938 C 8.644531 24.902344 7.066406 27.765625 7.066406 32.585938 C 7.066406 37.722656 8.644531 41.28125 13.609375 42.101563 "/>
<path style=" stroke:none;fill-rule:evenodd;fill:rgb(12.199402%,31.399536%,49.798584%);fill-opacity:1;" d="M 37.085938 26.273438 C 42.269531 26.273438 46.292969 27.976563 46.292969 32.738281 L 46.292969 40.417969 C 46.292969 43.804688 43.007813 46.417969 36.84375 46.417969 C 30.597656 46.417969 26.554688 44.421875 26.554688 39.878906 C 26.554688 35.90625 29.484375 34.941406 37.503906 33.75 L 40.265625 33.339844 C 40.265625 30.871094 39.945313 29.773438 35.925781 29.773438 C 32.347656 29.773438 28.65625 30.96875 28.65625 30.96875 C 28.050781 29.640625 28.238281 28.03125 29.171875 27.511719 C 30.207031 26.9375 32.410156 26.273438 37.085938 26.273438 Z M 36.585938 43.042969 C 39.320313 43.042969 40.265625 41.480469 40.265625 40.230469 L 40.265625 36.742188 C 40.265625 36.742188 37.097656 37.121094 34.910156 37.621094 C 32.9375 38.078125 32.328125 38.683594 32.328125 40.230469 C 32.328125 42.023438 33.476563 43.042969 36.585938 43.042969 "/>
<path style=" stroke:none;fill-rule:evenodd;fill:rgb(12.199402%,31.399536%,49.798584%);fill-opacity:1;" d="M 62.515625 26.789063 C 63.609375 27.203125 64.09375 28.347656 63.6875 30.054688 C 63.6875 30.054688 62.246094 29.855469 60.59375 29.855469 C 57.613281 29.855469 56.957031 30.742188 56.957031 33.09375 L 56.953125 42.234375 C 56.953125 44.414063 55.394531 46.160156 52.886719 46.160156 C 51.339844 46.160156 50.808594 45.984375 50.808594 45.984375 L 50.808594 32.785156 C 50.804688 28.339844 53.554688 26.289063 58.074219 26.289063 C 60.386719 26.289063 61.640625 26.460938 62.515625 26.789063 "/>
<path style=" stroke:none;fill-rule:evenodd;fill:rgb(12.199402%,31.399536%,49.798584%);fill-opacity:1;" d="M 87.605469 26.273438 C 88.585938 26.273438 89.265625 26.683594 89.265625 26.683594 L 82.558594 43.042969 C 81.773438 44.964844 80.257813 46.179688 78.136719 46.179688 C 75.574219 46.179688 73.953125 45.039063 73.144531 43.042969 L 66.632813 27.015625 C 66.632813 27.015625 67.835938 26.273438 69.847656 26.273438 C 72.195313 26.273438 73.539063 27.433594 74.0625 28.839844 L 78.753906 41.460938 L 83.28125 29.257813 C 84.0625 27.132813 85.371094 26.273438 87.605469 26.273438 "/>
<path style=" stroke:none;fill-rule:evenodd;fill:rgb(12.199402%,31.399536%,49.798584%);fill-opacity:1;" d="M 109.761719 53.101563 C 108.664063 52.6875 108.179688 51.542969 108.589844 49.835938 C 108.589844 49.835938 110.027344 50.035156 111.679688 50.035156 C 114.664063 50.035156 115.320313 49.148438 115.320313 46.796875 L 115.320313 30.203125 C 115.320313 28.023438 116.878906 26.273438 119.386719 26.273438 C 120.933594 26.273438 121.464844 26.453125 121.464844 26.453125 L 121.464844 47.105469 C 121.46875 51.546875 118.71875 53.601563 114.203125 53.601563 C 111.886719 53.601563 110.636719 53.429688 109.761719 53.101563 "/>
<path style=" stroke:none;fill-rule:evenodd;fill:rgb(12.199402%,31.399536%,49.798584%);fill-opacity:1;" d="M 135.664063 26.273438 C 140.847656 26.273438 144.871094 27.976563 144.871094 32.738281 L 144.871094 40.539063 C 144.871094 43.921875 141.585938 46.417969 135.421875 46.417969 C 129.179688 46.417969 125.253906 44.421875 125.253906 39.878906 C 125.253906 35.90625 128.039063 34.820313 136.082031 33.75 L 139.160156 33.339844 C 139.097656 30.886719 138.523438 29.773438 134.507813 29.773438 C 130.925781 29.773438 127.238281 30.96875 127.238281 30.96875 C 126.632813 29.640625 126.820313 28.03125 127.753906 27.511719 C 128.789063 26.9375 130.988281 26.273438 135.664063 26.273438 Z M 135.285156 43.042969 C 138.386719 43.042969 139.160156 41.480469 139.164063 40.230469 L 139.164063 36.742188 C 139.164063 36.742188 135.675781 37.121094 133.488281 37.621094 C 131.515625 38.078125 130.90625 38.683594 130.90625 40.230469 C 130.90625 42.109375 132.179688 43.042969 135.285156 43.042969 "/>
<path style=" stroke:none;fill-rule:evenodd;fill:rgb(12.199402%,31.399536%,49.798584%);fill-opacity:1;" d="M 160.984375 45.675781 C 160.105469 46.003906 158.855469 46.179688 156.539063 46.179688 C 152.023438 46.179688 149.273438 44.128906 149.273438 39.683594 L 149.277344 19.03125 C 149.277344 19.03125 149.808594 18.851563 151.355469 18.851563 C 153.863281 18.851563 155.425781 20.601563 155.425781 22.777344 L 155.425781 39.378906 C 155.425781 41.726563 156.078125 42.613281 159.0625 42.613281 C 160.714844 42.613281 162.152344 42.410156 162.152344 42.410156 C 162.5625 44.117188 162.078125 45.265625 160.984375 45.675781 "/>
<path style=" stroke:none;fill-rule:evenodd;fill:rgb(12.199402%,31.399536%,49.798584%);fill-opacity:1;" d="M 101.238281 26.273438 C 106.417969 26.273438 110.445313 27.976563 110.445313 32.738281 L 110.445313 40.300781 C 110.445313 43.683594 107.160156 46.417969 100.992188 46.417969 C 94.75 46.417969 90.707031 44.421875 90.707031 39.878906 C 90.707031 35.90625 93.632813 34.941406 101.652344 33.75 L 104.414063 33.339844 C 104.414063 30.871094 104.097656 29.773438 100.078125 29.773438 C 96.5 29.773438 92.808594 30.96875 92.808594 30.96875 C 92.203125 29.640625 92.394531 28.03125 93.324219 27.511719 C 94.359375 26.9375 96.5625 26.273438 101.238281 26.273438 Z M 100.742188 43.042969 C 103.472656 43.042969 104.414063 41.480469 104.414063 40.230469 L 104.414063 36.742188 C 104.414063 36.742188 101.246094 37.121094 99.0625 37.621094 C 97.089844 38.078125 96.480469 38.683594 96.480469 40.230469 C 96.480469 42.023438 97.632813 43.042969 100.742188 43.042969 "/>
<g clip-path="url(#clip1)" clip-rule="nonzero">
<path style=" stroke:none;fill-rule:nonzero;fill:rgb(100%,100%,100%);fill-opacity:1;" d="M 206.140625 37.339844 L 186.074219 37.339844 C 185.683594 37.339844 185.367188 37.011719 185.367188 36.617188 L 185.367188 34.058594 L 178.472656 34.058594 C 176.757813 34.058594 175.367188 32.664063 175.367188 30.953125 L 175.367188 24.085938 L 172.550781 24.085938 C 172.15625 24.085938 171.839844 23.765625 171.839844 23.371094 L 171.832031 3.109375 C 171.832031 1.394531 173.222656 0 174.9375 0 L 195.3125 0 C 195.703125 0 196.019531 0.320313 196.019531 0.710938 L 196.019531 3.46875 L 202.875 3.46875 C 204.585938 3.46875 205.980469 4.863281 205.980469 6.574219 L 205.980469 13.421875 L 208.535156 13.421875 C 208.929688 13.421875 209.25 13.738281 209.25 14.132813 L 209.25 34.246094 C 209.25 35.960938 207.855469 37.339844 206.140625 37.339844 M 186.089844 33.386719 L 186.089844 36.664063 L 206.171875 36.664063 C 207.496094 36.664063 208.570313 35.601563 208.570313 34.277344 L 208.570313 14.148438 L 205.300781 14.148438 L 205.300781 18.789063 L 195.335938 18.789063 L 195.335938 23.398438 L 190.761719 23.398438 L 190.761719 28.019531 L 190.761719 23.398438 L 186.105469 23.398438 L 190.761719 23.398438 L 190.761719 14.148438 L 186.09375 14.148438 L 190.761719 14.148438 L 190.761719 9.503906 L 190.761719 14.148438 L 195.371094 14.148438 L 190.761719 14.148438 L 190.761719 18.789063 L 205.300781 18.789063 L 205.300781 14.148438 L 202.84375 14.148438 L 205.300781 14.148438 L 205.300781 6.582031 C 205.300781 5.257813 204.226563 4.183594 202.898438 4.183594 L 195.363281 4.183594 C 195.351563 4.175781 195.34375 4.167969 195.335938 4.164063 L 195.335938 0.710938 L 174.9375 0.710938 C 173.613281 0.710938 172.539063 1.785156 172.539063 3.109375 L 172.546875 23.398438 L 176.078125 23.398438 L 176.078125 30.984375 C 176.078125 32.308594 177.148438 33.386719 178.472656 33.386719 L 186.089844 33.386719 M 190.761719 18.789063 L 190.761719 23.398438 L 195.335938 23.398438 L 195.335938 18.789063 L 190.761719 18.789063 "/>
</g>
<path style=" stroke:none;fill-rule:nonzero;fill:rgb(3.09906%,45.098877%,24.699402%);fill-opacity:1;" d="M 186.089844 23.398438 L 190.761719 23.398438 L 190.761719 18.789063 L 186.089844 18.789063 Z M 186.089844 23.398438 "/>
<path style=" stroke:none;fill-rule:nonzero;fill:rgb(3.898621%,68.998718%,87.799072%);fill-opacity:1;" d="M 176.078125 30.984375 C 176.078125 32.308594 177.148438 33.386719 178.472656 33.386719 L 186.089844 33.386719 L 186.089844 23.398438 L 176.078125 23.398438 L 176.078125 30.984375 "/>
<path style=" stroke:none;fill-rule:nonzero;fill:rgb(40.79895%,31.799316%,63.499451%);fill-opacity:1;" d="M 195.335938 4.183594 L 195.335938 14.148438 L 205.300781 14.148438 L 205.300781 6.582031 C 205.300781 5.257813 204.226563 4.183594 202.898438 4.183594 L 195.335938 4.183594 "/>
<path style=" stroke:none;fill-rule:nonzero;fill:rgb(4.699707%,59.199524%,38.398743%);fill-opacity:1;" d="M 186.089844 33.386719 L 190.761719 33.386719 L 190.761719 23.398438 L 186.089844 23.398438 Z M 186.089844 33.386719 "/>
<path style=" stroke:none;fill-rule:nonzero;fill:rgb(96.899414%,58.399963%,24.299622%);fill-opacity:1;" d="M 172.546875 23.398438 L 176.078125 23.398438 L 176.078125 18.789063 L 186.089844 18.789063 L 186.089844 14.148438 L 190.761719 14.148438 L 190.761719 4.183594 L 195.335938 4.183594 L 195.335938 0.710938 L 174.9375 0.710938 C 173.613281 0.710938 172.539063 1.785156 172.539063 3.109375 L 172.546875 23.398438 "/>
<path style=" stroke:none;fill-rule:nonzero;fill:rgb(36.499023%,16.499329%,47.499084%);fill-opacity:1;" d="M 190.761719 14.148438 L 195.335938 14.148438 L 195.335938 4.183594 L 190.761719 4.183594 Z M 190.761719 14.148438 "/>
<path style=" stroke:none;fill-rule:nonzero;fill:rgb(36.499023%,16.499329%,47.499084%);fill-opacity:1;" d="M 195.335938 18.789063 L 205.300781 18.789063 L 205.300781 14.148438 L 195.335938 14.148438 Z M 195.335938 18.789063 "/>
<path style=" stroke:none;fill-rule:nonzero;fill:rgb(86.299133%,40.39917%,15.299988%);fill-opacity:1;" d="M 186.089844 18.789063 L 190.761719 18.789063 L 190.761719 14.148438 L 186.089844 14.148438 Z M 186.089844 18.789063 "/>
<path style=" stroke:none;fill-rule:nonzero;fill:rgb(23.899841%,13.299561%,38.398743%);fill-opacity:1;" d="M 190.761719 18.789063 L 195.335938 18.789063 L 195.335938 14.148438 L 190.761719 14.148438 Z M 190.761719 18.789063 "/>
<path style=" stroke:none;fill-rule:nonzero;fill:rgb(86.299133%,40.39917%,15.299988%);fill-opacity:1;" d="M 190.761719 23.398438 L 195.335938 23.398438 L 195.335938 18.789063 L 190.761719 18.789063 Z M 190.761719 23.398438 "/>
<path style=" stroke:none;fill-rule:nonzero;fill:rgb(4.699707%,59.199524%,38.398743%);fill-opacity:1;" d="M 176.078125 23.398438 L 186.089844 23.398438 L 186.089844 18.789063 L 176.078125 18.789063 Z M 176.078125 23.398438 "/>
<path style=" stroke:none;fill-rule:nonzero;fill:rgb(63.499451%,75.299072%,22.698975%);fill-opacity:1;" d="M 206.171875 36.664063 C 207.496094 36.664063 208.570313 35.601563 208.570313 34.277344 L 208.570313 14.148438 L 205.300781 14.148438 L 205.300781 18.789063 L 195.335938 18.789063 L 195.335938 23.398438 L 190.761719 23.398438 L 190.761719 33.386719 L 186.089844 33.386719 L 186.089844 36.664063 L 206.171875 36.664063 "/>
<path style=" stroke:none;fill-rule:nonzero;fill:rgb(100%,100%,100%);fill-opacity:1;" d="M 186.089844 33.386719 L 186.089844 23.398438 L 186.089844 33.386719 L 190.761719 33.386719 L 190.761719 28.019531 L 190.761719 33.386719 L 186.089844 33.386719 M 195.363281 4.183594 L 195.335938 4.183594 L 195.335938 4.164063 C 195.34375 4.167969 195.351563 4.175781 195.363281 4.183594 "/>
<path style=" stroke:none;fill-rule:nonzero;fill:rgb(73.699951%,79.598999%,73.298645%);fill-opacity:1;" d="M 186.105469 23.398438 L 186.089844 23.398438 L 186.089844 23.382813 L 186.105469 23.398438 "/>
<path style=" stroke:none;fill-rule:nonzero;fill:rgb(79.998779%,90.19928%,96.499634%);fill-opacity:1;" d="M 186.089844 33.386719 C 185.867188 33.207031 185.660156 33.019531 185.464844 32.828125 L 176.652344 24.019531 C 176.492188 23.855469 176.300781 23.648438 176.101563 23.398438 L 186.089844 23.398438 L 186.089844 33.386719 "/>
<path style=" stroke:none;fill-rule:nonzero;fill:rgb(80.39856%,77.598572%,88.999939%);fill-opacity:1;" d="M 202.84375 14.148438 L 195.371094 14.148438 L 195.335938 14.113281 L 195.335938 4.183594 L 195.363281 4.183594 C 195.582031 4.359375 195.796875 4.546875 196 4.753906 L 204.109375 12.863281 C 204.109375 12.863281 203.8125 13.21875 202.84375 14.148438 "/>
<path style=" stroke:none;fill-rule:nonzero;fill:rgb(77.999878%,85.899353%,80.39856%);fill-opacity:1;" d="M 190.761719 33.386719 L 186.089844 33.386719 L 186.089844 23.398438 L 186.105469 23.398438 L 190.761719 28.019531 L 190.761719 33.386719 "/>
<path style=" stroke:none;fill-rule:nonzero;fill:rgb(99.598694%,88.198853%,77.598572%);fill-opacity:1;" d="M 176.078125 23.367188 C 175.335938 22.414063 174.472656 20.847656 174.472656 18.761719 C 174.472656 16.230469 175.730469 14.429688 176.652344 13.507813 L 185.414063 4.753906 C 186.589844 3.578125 188.398438 2.570313 190.703125 2.570313 C 192.34375 2.570313 193.984375 3.097656 195.335938 4.164063 L 195.335938 4.183594 L 190.761719 4.183594 L 190.761719 9.503906 L 190.757813 9.5 L 186.09375 14.148438 L 186.089844 14.148438 L 186.089844 14.152344 L 181.449219 18.777344 L 181.464844 18.789063 L 176.078125 18.789063 L 176.078125 23.367188 "/>
<path style=" stroke:none;fill-rule:nonzero;fill:rgb(77.598572%,72.198486%,81.599426%);fill-opacity:1;" d="M 195.335938 14.113281 L 190.761719 9.503906 L 190.761719 4.183594 L 195.335938 4.183594 L 195.335938 14.113281 "/>
<path style=" stroke:none;fill-rule:nonzero;fill:rgb(77.598572%,72.198486%,81.599426%);fill-opacity:1;" d="M 198.972656 16 C 197.933594 16 196.871094 15.65625 196.039063 14.824219 L 195.371094 14.148438 L 202.84375 14.148438 C 202.640625 14.347656 202.402344 14.570313 202.132813 14.824219 C 201.378906 15.527344 200.191406 16 198.972656 16 "/>
<path style=" stroke:none;fill-rule:nonzero;fill:rgb(96.099854%,82.699585%,72.499084%);fill-opacity:1;" d="M 186.089844 14.152344 L 186.089844 14.148438 L 186.09375 14.148438 L 186.089844 14.152344 "/>
<path style=" stroke:none;fill-rule:nonzero;fill:rgb(77.999878%,85.899353%,80.39856%);fill-opacity:1;" d="M 186.089844 23.398438 L 176.101563 23.398438 C 176.09375 23.386719 176.085938 23.378906 176.078125 23.367188 L 176.078125 18.789063 L 181.464844 18.789063 L 186.089844 23.382813 L 186.089844 23.398438 "/>
<path style=" stroke:none;fill-rule:nonzero;fill:rgb(89.399719%,92.199707%,78.799438%);fill-opacity:1;" d="M 190.75 35.003906 C 188.789063 35.003906 187.234375 34.300781 186.089844 33.386719 L 190.761719 33.386719 L 190.761719 28.019531 L 190.765625 28.023438 C 190.765625 28.023438 195.671875 23.066406 195.804688 22.933594 C 196.773438 21.964844 197.925781 21.492188 199.070313 21.492188 C 200.234375 21.492188 201.394531 21.980469 202.347656 22.933594 L 204.152344 24.722656 L 196.046875 32.828125 C 194.585938 34.285156 192.671875 35.003906 190.75 35.003906 "/>
<path style=" stroke:none;fill-rule:nonzero;fill:rgb(12.199402%,31.399536%,49.798584%);fill-opacity:1;" d="M 116.589844 63.601563 L 117.78125 63.601563 L 117.78125 70.296875 L 116.589844 70.296875 L 116.589844 63.601563 "/>
<path style=" stroke:none;fill-rule:nonzero;fill:rgb(12.199402%,31.399536%,49.798584%);fill-opacity:1;" d="M 120.472656 65.207031 L 120.492188 65.851563 L 120.492188 70.296875 L 119.308594 70.296875 L 119.308594 63.601563 L 120.734375 63.601563 L 123.753906 68.6875 L 123.734375 68.074219 L 123.734375 63.601563 L 124.921875 63.601563 L 124.921875 70.296875 L 123.5 70.296875 L 120.472656 65.207031 "/>
<path style=" stroke:none;fill-rule:nonzero;fill:rgb(12.199402%,31.399536%,49.798584%);fill-opacity:1;" d="M 126.453125 70.296875 L 126.453125 63.601563 L 130.714844 63.601563 L 130.714844 64.691406 L 127.636719 64.691406 L 127.636719 66.402344 L 130.21875 66.402344 L 130.21875 67.496094 L 127.636719 67.496094 L 127.636719 70.296875 L 126.453125 70.296875 "/>
<path style=" stroke:none;fill-rule:nonzero;fill:rgb(12.199402%,31.399536%,49.798584%);fill-opacity:1;" d="M 132.570313 66.957031 C 132.570313 67.300781 132.625 67.621094 132.734375 67.910156 C 132.84375 68.199219 132.992188 68.449219 133.191406 68.660156 C 133.390625 68.871094 133.628906 69.03125 133.90625 69.148438 C 134.1875 69.261719 134.5 69.320313 134.84375 69.320313 C 135.1875 69.320313 135.5 69.257813 135.785156 69.140625 C 136.0625 69.023438 136.304688 68.863281 136.5 68.652344 C 136.699219 68.4375 136.851563 68.191406 136.960938 67.898438 C 137.066406 67.609375 137.121094 67.292969 137.121094 66.945313 C 137.121094 66.605469 137.066406 66.285156 136.960938 65.996094 C 136.851563 65.707031 136.699219 65.457031 136.5 65.246094 C 136.304688 65.035156 136.0625 64.871094 135.785156 64.753906 C 135.5 64.636719 135.1875 64.578125 134.84375 64.578125 C 134.5 64.578125 134.1875 64.636719 133.90625 64.753906 C 133.628906 64.871094 133.390625 65.035156 133.191406 65.246094 C 132.992188 65.457031 132.84375 65.707031 132.734375 66.003906 C 132.625 66.292969 132.570313 66.613281 132.570313 66.957031 Z M 131.386719 66.957031 C 131.386719 66.453125 131.46875 65.988281 131.644531 65.5625 C 131.824219 65.132813 132.066406 64.769531 132.375 64.460938 C 132.683594 64.15625 133.050781 63.917969 133.472656 63.746094 C 133.898438 63.574219 134.355469 63.484375 134.84375 63.484375 C 135.335938 63.484375 135.792969 63.574219 136.214844 63.746094 C 136.644531 63.917969 137.007813 64.15625 137.316406 64.460938 C 137.628906 64.769531 137.867188 65.132813 138.042969 65.558594 C 138.21875 65.980469 138.308594 66.441406 138.308594 66.945313 C 138.308594 67.464844 138.21875 67.933594 138.042969 68.359375 C 137.867188 68.78125 137.628906 69.144531 137.316406 69.445313 C 137.007813 69.75 136.644531 69.988281 136.214844 70.15625 C 135.792969 70.324219 135.335938 70.40625 134.84375 70.40625 C 134.355469 70.40625 133.898438 70.324219 133.472656 70.160156 C 133.050781 69.996094 132.683594 69.757813 132.375 69.457031 C 132.066406 69.15625 131.824219 68.789063 131.644531 68.367188 C 131.46875 67.945313 131.386719 67.472656 131.386719 66.957031 "/>
<path style=" stroke:none;fill-rule:nonzero;fill:rgb(12.199402%,31.399536%,49.798584%);fill-opacity:1;" d="M 140.6875 64.691406 L 140.6875 66.851563 L 142.246094 66.851563 C 143.042969 66.851563 143.441406 66.488281 143.441406 65.761719 C 143.441406 65.050781 143.042969 64.691406 142.246094 64.691406 Z M 142.21875 67.941406 L 140.6875 67.941406 L 140.6875 70.296875 L 139.5 70.296875 L 139.5 63.601563 L 142.226563 63.601563 C 142.570313 63.601563 142.890625 63.636719 143.183594 63.710938 C 143.472656 63.785156 143.730469 63.910156 143.941406 64.074219 C 144.15625 64.242188 144.328125 64.464844 144.449219 64.738281 C 144.574219 65.015625 144.636719 65.355469 144.636719 65.761719 C 144.636719 66.304688 144.523438 66.734375 144.300781 67.058594 C 144.078125 67.382813 143.777344 67.613281 143.394531 67.761719 L 144.8125 70.296875 L 143.488281 70.296875 L 142.21875 67.941406 "/>
<path style=" stroke:none;fill-rule:nonzero;fill:rgb(12.199402%,31.399536%,49.798584%);fill-opacity:1;" d="M 149.410156 68.457031 L 149.578125 68.964844 L 149.753906 68.457031 L 151.433594 63.601563 L 153.203125 63.601563 L 153.203125 70.296875 L 152.019531 70.296875 L 152.019531 65.5625 L 152.046875 64.894531 L 150.152344 70.296875 L 149.003906 70.296875 L 147.113281 64.894531 L 147.144531 65.574219 L 147.144531 70.296875 L 145.953125 70.296875 L 145.953125 63.601563 L 147.722656 63.601563 L 149.410156 68.457031 "/>
<path style=" stroke:none;fill-rule:nonzero;fill:rgb(12.199402%,31.399536%,49.798584%);fill-opacity:1;" d="M 156.300781 67.683594 L 158.347656 67.683594 L 157.324219 64.644531 Z M 160.496094 70.296875 L 159.238281 70.296875 L 158.710938 68.734375 L 155.949219 68.734375 L 155.421875 70.296875 L 154.160156 70.296875 L 156.558594 63.601563 L 158.097656 63.601563 L 160.496094 70.296875 "/>
<g clip-path="url(#clip2)" clip-rule="nonzero">
<path style=" stroke:none;fill-rule:nonzero;fill:rgb(12.199402%,31.399536%,49.798584%);fill-opacity:1;" d="M 164.007813 71.375 C 164.007813 71.28125 163.964844 71.195313 163.878906 71.128906 C 163.789063 71.054688 163.636719 71.023438 163.414063 71.023438 L 163.644531 70.371094 C 163.21875 70.3125 162.828125 70.191406 162.464844 70.003906 C 162.101563 69.816406 161.789063 69.570313 161.527344 69.277344 C 161.261719 68.980469 161.058594 68.636719 160.910156 68.242188 C 160.761719 67.851563 160.6875 67.417969 160.6875 66.945313 C 160.6875 66.449219 160.777344 65.988281 160.953125 65.566406 C 161.128906 65.140625 161.371094 64.773438 161.675781 64.464844 C 161.980469 64.15625 162.34375 63.917969 162.761719 63.746094 C 163.1875 63.574219 163.640625 63.484375 164.132813 63.484375 C 164.589844 63.484375 164.980469 63.542969 165.292969 63.660156 C 165.609375 63.773438 165.902344 63.933594 166.179688 64.136719 L 165.558594 65.066406 C 165.378906 64.917969 165.175781 64.796875 164.945313 64.710938 C 164.714844 64.621094 164.445313 64.578125 164.132813 64.578125 C 163.816406 64.578125 163.515625 64.632813 163.238281 64.738281 C 162.960938 64.847656 162.722656 65.003906 162.523438 65.214844 C 162.320313 65.421875 162.160156 65.671875 162.046875 65.964844 C 161.933594 66.257813 161.875 66.585938 161.875 66.945313 C 161.875 67.3125 161.933594 67.640625 162.046875 67.933594 C 162.160156 68.226563 162.320313 68.476563 162.527344 68.683594 C 162.730469 68.890625 162.972656 69.046875 163.253906 69.160156 C 163.535156 69.265625 163.835938 69.320313 164.164063 69.320313 C 164.445313 69.320313 164.710938 69.277344 164.949219 69.1875 C 165.1875 69.09375 165.398438 68.976563 165.585938 68.832031 L 166.207031 69.757813 C 165.953125 69.949219 165.65625 70.101563 165.320313 70.222656 C 164.988281 70.339844 164.609375 70.402344 164.1875 70.40625 L 164.101563 70.65625 C 164.359375 70.714844 164.542969 70.816406 164.652344 70.957031 C 164.761719 71.097656 164.820313 71.265625 164.820313 71.472656 C 164.820313 71.578125 164.800781 71.6875 164.757813 71.796875 C 164.71875 71.902344 164.648438 72 164.558594 72.082031 C 164.464844 72.167969 164.34375 72.234375 164.1875 72.28125 C 164.035156 72.335938 163.847656 72.359375 163.625 72.359375 C 163.484375 72.359375 163.335938 72.347656 163.175781 72.320313 C 163.015625 72.296875 162.894531 72.257813 162.800781 72.207031 L 163.03125 71.625 L 163.269531 71.699219 L 163.519531 71.726563 C 163.671875 71.726563 163.789063 71.699219 163.878906 71.648438 C 163.964844 71.59375 164.007813 71.503906 164.007813 71.375 "/>
</g>
<path style=" stroke:none;fill-rule:nonzero;fill:rgb(12.199402%,31.399536%,49.798584%);fill-opacity:1;" d="M 174.640625 66.957031 C 174.640625 67.300781 174.695313 67.621094 174.800781 67.910156 C 174.910156 68.199219 175.0625 68.449219 175.257813 68.660156 C 175.457031 68.871094 175.699219 69.03125 175.980469 69.148438 C 176.257813 69.261719 176.570313 69.320313 176.914063 69.320313 C 177.261719 69.320313 177.570313 69.257813 177.851563 69.140625 C 178.132813 69.023438 178.371094 68.863281 178.570313 68.652344 C 178.765625 68.4375 178.917969 68.191406 179.027344 67.898438 C 179.136719 67.609375 179.191406 67.292969 179.191406 66.945313 C 179.191406 66.605469 179.136719 66.285156 179.027344 65.996094 C 178.917969 65.707031 178.765625 65.457031 178.570313 65.246094 C 178.371094 65.035156 178.132813 64.871094 177.851563 64.753906 C 177.570313 64.636719 177.261719 64.578125 176.914063 64.578125 C 176.570313 64.578125 176.257813 64.636719 175.980469 64.753906 C 175.699219 64.871094 175.457031 65.035156 175.257813 65.246094 C 175.0625 65.457031 174.910156 65.707031 174.800781 66.003906 C 174.695313 66.292969 174.640625 66.613281 174.640625 66.957031 Z M 173.453125 66.957031 C 173.453125 66.453125 173.542969 65.988281 173.71875 65.5625 C 173.890625 65.132813 174.132813 64.769531 174.445313 64.460938 C 174.753906 64.15625 175.121094 63.917969 175.542969 63.746094 C 175.96875 63.574219 176.425781 63.484375 176.914063 63.484375 C 177.40625 63.484375 177.863281 63.574219 178.289063 63.746094 C 178.710938 63.917969 179.078125 64.15625 179.386719 64.460938 C 179.695313 64.769531 179.9375 65.132813 180.113281 65.558594 C 180.289063 65.980469 180.375 66.441406 180.375 66.945313 C 180.375 67.464844 180.289063 67.933594 180.113281 68.359375 C 179.9375 68.78125 179.695313 69.144531 179.386719 69.445313 C 179.078125 69.75 178.710938 69.988281 178.289063 70.15625 C 177.863281 70.324219 177.40625 70.40625 176.914063 70.40625 C 176.425781 70.40625 175.96875 70.324219 175.542969 70.160156 C 175.121094 69.996094 174.753906 69.757813 174.445313 69.457031 C 174.132813 69.15625 173.890625 68.789063 173.71875 68.367188 C 173.542969 67.945313 173.453125 67.472656 173.453125 66.957031 "/>
<path style=" stroke:none;fill-rule:nonzero;fill:rgb(12.199402%,31.399536%,49.798584%);fill-opacity:1;" d="M 169.015625 67.664063 L 171.0625 67.664063 L 170.042969 64.621094 Z M 173.214844 70.273438 L 171.953125 70.273438 L 171.429688 68.710938 L 168.664063 68.710938 L 168.140625 70.273438 L 166.875 70.273438 L 169.273438 63.582031 L 170.816406 63.582031 L 173.214844 70.273438 "/>
<path style=" stroke:none;fill-rule:nonzero;fill:rgb(12.199402%,31.399536%,49.798584%);fill-opacity:1;" d="M 171.070313 62.449219 C 170.828125 62.449219 170.625 62.40625 170.464844 62.320313 C 170.304688 62.234375 170.160156 62.136719 170.027344 62.035156 C 169.890625 61.929688 169.765625 61.832031 169.636719 61.742188 C 169.515625 61.652344 169.363281 61.609375 169.195313 61.609375 C 168.972656 61.609375 168.824219 61.667969 168.753906 61.789063 C 168.683594 61.910156 168.648438 62.09375 168.648438 62.335938 L 167.816406 62.335938 L 167.816406 61.855469 C 167.816406 61.5 167.90625 61.210938 168.085938 60.996094 C 168.265625 60.78125 168.578125 60.671875 169.019531 60.671875 C 169.257813 60.671875 169.457031 60.714844 169.621094 60.804688 C 169.78125 60.894531 169.929688 60.992188 170.066406 61.097656 C 170.199219 61.203125 170.324219 61.300781 170.453125 61.382813 C 170.578125 61.46875 170.726563 61.511719 170.894531 61.511719 C 171.121094 61.511719 171.265625 61.453125 171.335938 61.332031 C 171.40625 61.210938 171.441406 61.027344 171.441406 60.785156 L 172.273438 60.785156 L 172.273438 61.265625 C 172.273438 61.621094 172.183594 61.90625 172.007813 62.125 C 171.828125 62.339844 171.515625 62.449219 171.070313 62.449219 "/>
</g>
</svg>
